<?xml version="1.0" encoding="UTF-8" standalone="no"?>
<svg
   viewBox="0 0 640 640"
   version="1.1"
   id="svg1"
   sodipodi:docname="map-location-solid-full_korostus.svg"
   xml:space="preserve"
   inkscape:version="1.4.2 (ebf0e94, 2025-05-08)"
   xmlns:inkscape="http://www.inkscape.org/namespaces/inkscape"
   xmlns:sodipodi="http://sodipodi.sourceforge.net/DTD/sodipodi-0.dtd"
   xmlns="http://www.w3.org/2000/svg"
   xmlns:svg="http://www.w3.org/2000/svg"><defs
     id="defs1" /><sodipodi:namedview
     id="namedview1"
     pagecolor="#ffffff"
     bordercolor="#000000"
     borderopacity="0.25"
     inkscape:showpageshadow="2"
     inkscape:pageopacity="0.0"
     inkscape:pagecheckerboard="0"
     inkscape:deskcolor="#d1d1d1"
     inkscape:zoom="0.97890095"
     inkscape:cx="242.61903"
     inkscape:cy="247.21602"
     inkscape:window-width="1920"
     inkscape:window-height="1130"
     inkscape:window-x="-6"
     inkscape:window-y="-6"
     inkscape:window-maximized="1"
     inkscape:current-layer="svg1" /><!--!Font Awesome Free 7.1.0 by @fontawesome - https://fontawesome.com License - https://fontawesome.com/license/free Copyright 2025 Fonticons, Inc.--><path
     d="m 375.18709,396.70602 c 0,68.9 64.1,150.4 98.6,189.3 11.6,13 31.3,13 42.9,0 34.5,-38.9 98.6,-120.4 98.6,-189.3 0,-65.1 -53.7,-117.9 -120,-117.9 -66.3,0 -120.1,52.8 -120.1,117.9 z"
     id="path2"
     style="fill:#cd491c;fill-opacity:1" /><path
     d="m 559.18709,102.80602 c 0,-11.100004 -5.7,-21.400004 -15.2,-27.200004 -9.5,-5.8 -21.2,-6.4 -31.1,-1.4 l -116.2,58.100004 -179.4,-59.900004 c -8.1,-2.7 -16.8,-2.1 -24.4,1.7 L 64.887092,138.10602 c -10.9,5.5 -17.7,16.6 -17.7,28.7 v 352 c 0,11.1 5.7,21.4 15.2,27.2 9.5,5.8 21.2,6.4 31.1,1.4 l 116.099998,-58.1 173.3,57.8 c -4.3,-6.4 -8.5,-13.1 -12.6,-19.9 -11,-18.3 -21.9,-39.3 -30,-61.8 l -101.2,-33.7 v -284.5 l 128,42.7 v 99.3 c 31,-35.8 77,-58.4 128,-58.4 22.6,0 44.2,4.4 64,12.5 z"
     id="path1"
     style="fill:#183153;fill-opacity:1" /><path
     d="m 526.08554,337.42331 c -5.33816,-1.53865 -10.89613,1.57005 -12.43477,6.90821 L 473.45758,485.0077 c -1.53866,5.33816 1.57004,10.89613 6.9082,12.43477 5.33815,1.53864 10.89612,-1.57005 12.43477,-6.90821 l 40.1932,-140.67618 c 1.53864,-5.33816 -1.57006,-10.89612 -6.90821,-12.43477 z m 20.285,42.73667 c -3.92511,3.92512 -3.92511,10.2995 0,14.22462 l 23.04829,23.04829 -23.04829,23.04829 c -3.92511,3.92511 -3.92511,10.2995 0,14.22462 3.92512,3.92511 10.29951,3.92511 14.22463,0 l 30.14489,-30.1449 c 3.92512,-3.92511 3.92512,-10.29951 0,-14.22462 l -30.14489,-30.1449 c -3.92512,-3.92511 -10.29951,-3.92511 -14.22463,0 z m -86.25836,0 c -3.92512,-3.92512 -10.29951,-3.92512 -14.22462,0 l -30.1449,30.1449 c -3.92511,3.92512 -3.92511,10.2995 0,14.22462 l 30.1449,30.1449 c 3.92511,3.92512 10.2995,3.92512 14.22462,0 3.92512,-3.92512 3.92512,-10.29951 0,-14.22462 l -23.04829,-23.01689 23.01688,-23.04829 c 3.92513,-3.92512 3.92513,-10.2995 0,-14.22462 z"
     id="path1-8-5"
     style="fill:#9a3615;fill-opacity:1;stroke:#000000;stroke-width:0;stroke-dasharray:none;stroke-opacity:1" /><path
     d="m 518.92194,328.48055 c -5.33816,-1.53865 -10.89613,1.57005 -12.43477,6.90821 l -40.19319,140.67618 c -1.53866,5.33816 1.57004,10.89613 6.9082,12.43477 5.33815,1.53864 10.89612,-1.57005 12.43477,-6.90821 l 40.1932,-140.67618 c 1.53864,-5.33816 -1.57006,-10.89612 -6.90821,-12.43477 z m 20.285,42.73667 c -3.92511,3.92512 -3.92511,10.2995 0,14.22462 l 23.04829,23.04829 -23.04829,23.04829 c -3.92511,3.92511 -3.92511,10.2995 0,14.22462 3.92512,3.92511 10.29951,3.92511 14.22463,0 l 30.14489,-30.1449 c 3.92512,-3.92511 3.92512,-10.29951 0,-14.22462 l -30.14489,-30.1449 c -3.92512,-3.92511 -10.29951,-3.92511 -14.22463,0 z m -86.25836,0 c -3.92512,-3.92512 -10.29951,-3.92512 -14.22462,0 l -30.1449,30.1449 c -3.92511,3.92512 -3.92511,10.2995 0,14.22462 l 30.1449,30.1449 c 3.92511,3.92512 10.2995,3.92512 14.22462,0 3.92512,-3.92512 3.92512,-10.29951 0,-14.22462 l -23.04829,-23.01689 23.01688,-23.04829 c 3.92513,-3.92512 3.92513,-10.2995 0,-14.22462 z"
     id="path1-8"
     style="fill:#ffffff;stroke:#000000;stroke-width:0;stroke-dasharray:none;stroke-opacity:1" /></svg>
